<?xml version="1.0" standalone="no"?>
<!DOCTYPE svg PUBLIC "-//W3C//DTD SVG 1.1//EN" "http://www.w3.org/Graphics/SVG/1.1/DTD/svg11.dtd" >
<svg xmlns="http://www.w3.org/2000/svg">
<metadata>
This is a custom SVG webfont generated by Font Squirrel.
Copyright   : Kingthings Italique 2003 All Rights Reserved
Designer    : Kevin King
Foundry     : kevinkingmypostofficecouk
</metadata>
<defs>
<font id="KingthingsItaliqueRegular" horiz-adv-x="775" >
<font-face units-per-em="2048" ascent="1638" descent="-410" />
<missing-glyph horiz-adv-x="267" />
<glyph unicode=" "  horiz-adv-x="267" />
<glyph unicode="&#x09;" horiz-adv-x="267" />
<glyph unicode="&#xa0;" horiz-adv-x="267" />
<glyph unicode="!" horiz-adv-x="371" d="M23 1166l24 -32l85 104l-2 -1064l174 138v1116l81 90l-25 29zM129 -38l1 -218l174 138v242z" />
<glyph unicode="&#x22;" horiz-adv-x="494" d="M-1 1045l34 -27l248 277q-49 122 -120 182l-154 -162q91 -87 92 -158zM219 1045l34 -27l248 277q-49 122 -120 182l-154 -162q91 -87 92 -158z" />
<glyph unicode="#" horiz-adv-x="1061" d="M8 529l878 27l46 34l-845 31zM98 809l878 27l46 34l-845 31zM220 108l14 -77l334 1175l-98 103zM520 108l14 -77l334 1175l-98 103z" />
<glyph unicode="$" horiz-adv-x="636" d="M38 414q-8 -26 -8 -52q0 -104 125 -191q154 -109 176 -169l23 -13q187 369 225 471q29 78 29 134q0 16 -2 31q-12 63 -93.5 142t-181.5 150.5t-99 158.5h240l120 223l-264 -1q-67 -118 -145 -227t-93 -170q-5 -18 -5 -35q0 -43 27 -85q37 -58 205 -191q138 -108 138 -222 q0 -25 -7 -50l-47 -96q-27 102 -151 184q-86 56 -86 122q0 31 18 63l-23 18zM327 1512l1 -1869l62 114v1880z" />
<glyph unicode="%" horiz-adv-x="836" d="M42 838q63 -179 178 -269q138 230 178 316q25 56 25 120q0 35 -7 71q-21 105 -185 223q-202 -225 -202 -384q0 -40 13 -77zM141 1148q173 -96 173 -325q0 -18 -1 -37l-34 -58q-147 167 -147 336q0 42 9 84zM150 -242l14 -77l504 1645l-98 103zM442 249q63 -180 178 -270 q138 230 178 316q25 56 25 120q0 35 -7 71q-21 105 -185 223q-202 -225 -202 -384q0 -40 13 -76zM541 558q173 -96 173 -325q0 -18 -1 -37l-34 -58q-147 167 -147 336q0 42 9 84z" />
<glyph unicode="&#x26;" horiz-adv-x="926" d="M34 249q52 -188 277 -264l198 231q139 -189 228 -226l226 278l-26 24l-91 -106q-70 19 -235 234l298 394l-19 11l-212 -2q46 100 46 171q0 78 -58 119l-11 1q53 -38 53 -98q0 -78 -85 -192l-155 -191l19 -15q46 38 119 38q15 0 31 -2l96 3l-161 -207q-371 474 -371 606 q0 13 3 22l64 63q112 -94 150 -198q14 -40 14 -79q0 -62 -36 -120l16 -22l130 235q3 21 3 40q0 72 -35 130q-43 74 -170 172q-182 -174 -229 -290q-21 -53 -21 -110q0 -67 30 -140l39 -78q-137 -189 -137 -344q0 -46 12 -88zM185 317q-60 81 -60 163q0 83 62 168l282 -393 l-67 -87q-8 -1 -16 -1q-91 0 -201 150z" />
<glyph unicode="'" horiz-adv-x="262" d="M-1 1047l34 -27l248 277q-49 122 -120 182l-154 -162q91 -87 92 -158z" />
<glyph unicode="(" horiz-adv-x="297" d="M30 612q-6 -62 -6 -130q0 -166 33 -362q45 -275 161 -490l90 127q-189 400 -189 827q0 421 183 868l-21 15q-96 -182 -164.5 -409.5t-86.5 -445.5z" />
<glyph unicode=")" horiz-adv-x="308" d="M24 1341q189 -400 189 -827q0 -421 -183 -868l21 -15q96 182 164.5 409.5t86.5 445.5q6 62 6 130q0 166 -33 362q-45 275 -161 490z" />
<glyph unicode="*" horiz-adv-x="355" d="M1 1129l114 12l-71 -72l18 -103l90 125l-8 -132l73 -42l-11 176l94 -131l18 99l-75 80l96 -1l33 89l-134 -19l65 83l-17 81l-79 -108l8 155l-65 -45l4 -113l-78 115l-19 -80l63 -88h-88z" />
<glyph unicode="+" horiz-adv-x="795" d="M28 508l278 12v-354l131 172l20 192l185 20l142 140h-321l11 316l-160 -148v-171h-160z" />
<glyph unicode="," horiz-adv-x="263" d="M-18 -108l34 -27l248 277q-49 122 -120 182l-154 -162q91 -87 92 -158z" />
<glyph unicode="-" d="M16 409l16 -13q47 72 134 72h9h396q113 21 186 247l-9 16q-78 -91 -171 -91h-6h-333q-158 -13 -222 -231z" />
<glyph unicode="." horiz-adv-x="274" d="M-10 162q91 -87 112 -188l162 148q-49 142 -120 202z" />
<glyph unicode="/" horiz-adv-x="485" d="M-40 -242l104 -97l414 1665l-98 103z" />
<glyph unicode="0" horiz-adv-x="649" d="M46 472q124 -322 281 -481q220 412 282 566q40 100 40 215q0 61 -11 126q-33 188 -292 400q-329 -391 -329 -671q0 -83 29 -155zM207 721q78 -75 96 -161l138 126q-42 122 -102 173zM259 1087q235 -168 235 -466q0 -129 -44 -283l-63 -121q-224 297 -224 552 q0 168 96 318z" />
<glyph unicode="1" horiz-adv-x="448" d="M7 -3h344l138 194l-287 2q80 64 136 194l3 905l-26 18l-276 -289l29 -14l85 83l-1 -887z" />
<glyph unicode="2" horiz-adv-x="617" d="M39 -2l371 2l192 236l-340 2q305 370 342 578q5 26 5 52q0 192 -239 447q-217 -215 -279 -364q-37 -89 -37 -169q0 -54 16 -104q42 -123 148 -186l116 176q-145 130 -145 263q0 103 86 208q99 -101 158 -300q7 -23 7 -52q0 -221 -401 -789z" />
<glyph unicode="3" horiz-adv-x="653" d="M0 1038l26 -22l70 86h302l-256 -346l32 -12q41 52 93 52q34 0 74 -23q99 -58 150 -224q13 -43 13 -86q0 -128 -110 -267q-45 267 -221 455l-163 -197q171 -112 286 -486l278 408q63 95 63 221q0 42 -7 87q-25 196 -256 307l218 305l-397 -1z" />
<glyph unicode="4" horiz-adv-x="653" d="M-30 234l28 -32q33 72 196 72q38 0 84 -4v-81l-163 -191l302 2l169 202l-30 15q-58 -42 -145 -42q-36 0 -77 7q72 43 85 92h156l109 221l-14 24q-94 -61 -219 -61q-14 0 -27 1v279q-4 24 -4 47q0 87 52 158l-11 24l-191 -233l2 -281l-134 1q215 846 309 914l-8 31 l-229 -197q-163 -898 -240 -968z" />
<glyph unicode="5" horiz-adv-x="603" d="M8 323q0 -125 100 -202.5t116 -140.5q70 55 211 271q136 208 136 312q0 5 -1 9q-5 104 -57.5 155.5t-72.5 102.5q-14 34 -14 84q0 25 3 53l-247 -255l-1 376h235l138 183l-12 27h-323l-155 -206v-527l32 -12q41 76 150 178q154 -217 158 -327v-18q0 -99 -40 -188 q-45 73 -125 124q-71 47 -71 127q0 9 1 18l55 62l-26 27z" />
<glyph unicode="6" horiz-adv-x="555" d="M28 530q14 -126 46.5 -221.5t210.5 -337.5q187 286 226 406q28 87 28 175q0 33 -3 66q-15 120 -73.5 194.5t-96.5 103.5l-194 -324q-16 85 -16 175q0 120 29 250q51 225 181 374l-25 17q-121 -126 -205 -321.5t-103 -312.5q-11 -68 -11 -139q0 -52 6 -105zM190 547 l90 152q66 -59 103 -145q31 -74 31 -156v-28q-7 -98 -64 -174q-54 64 -95 160.5t-65 190.5z" />
<glyph unicode="7" horiz-adv-x="567" d="M9 1022l44 -19q4 76 118 76h14l239 1q-315 -600 -315 -802q0 -20 3 -36q34 -178 180 -242l209 263l-17 17q-54 -44 -96 -44q-17 0 -33 7q-52 26 -86 114q-6 16 -6 43q0 119 124 450q153 404 205 410v20h-432z" />
<glyph unicode="8" horiz-adv-x="539" d="M35 289q65 -190 231 -303q198 254 233 348q20 53 20 111q0 48 -13 100q-29 116 -214 309q-126 133 -126 234q0 47 27 88q155 -73 155 -196q0 -59 -37 -131l30 -24q130 167 130 283q0 138 -183 206q-245 -233 -245 -378q0 -32 11 -60q66 -153 198.5 -301.5t146.5 -229.5 q4 -23 4 -44q0 -55 -26 -101l-21 -21q-209 221 -209 351q0 59 42 99l-28 27q-143 -131 -143 -271q0 -47 17 -96z" />
<glyph unicode="9" horiz-adv-x="561" d="M0 214q9 1 17 1q118 0 216 -245q121 118 200 300t98 292q11 63 11 129q0 49 -6 98q-14 118 -46.5 207t-190.5 315q-207 -267 -246 -379q-28 -82 -28 -164q0 -30 4 -61q14 -112 87.5 -181.5t111.5 -96.5l164 302q24 -117 24 -227q0 -63 -8 -124q-22 -165 -86 -234 q-37 192 -174 236zM150 939q7 91 64 162q54 -60 95 -150t65 -178l-90 -141q-66 55 -103 136q-31 68 -31 144v27z" />
<glyph unicode=":" horiz-adv-x="280" d="M-10 162q91 -87 112 -188l162 148q-49 142 -120 202zM-10 532q91 -87 112 -188l162 148q-49 142 -120 202z" />
<glyph unicode=";" horiz-adv-x="266" d="M-18 -108l34 -27l248 277q-49 122 -120 182l-154 -162q91 -87 92 -158zM-10 532q91 -87 112 -188l162 148q-49 142 -120 202z" />
<glyph unicode="&#x3c;" horiz-adv-x="654" d="M24 559q306 -111 452 -362l108 142q-112 222 -385 304l413 290l-8 8l-579 -347z" />
<glyph unicode="=" horiz-adv-x="819" d="M26 359l16 -13q49 72 140 72h10l413 -30q96 46 195 247l-10 16q-82 -91 -178 -91h-6h-348q-131 -48 -232 -201zM26 569l16 -13q49 72 140 72h10l413 -30q98 48 195 247l-10 16q-82 -91 -178 -91h-6h-348q-134 -48 -232 -201z" />
<glyph unicode="&#x3e;" horiz-adv-x="644" d="M44 215l8 -8l579 347l1 35q-306 111 -452 362l-108 -142q112 -222 385 -304z" />
<glyph unicode="?" horiz-adv-x="494" d="M-64 922q131 -28 131 -144q0 -25 -6 -55l124 157q4 19 4 36q0 96 -112 140l76 99q137 -97 182 -303q10 -47 10 -92q0 -150 -114 -272l-104 -79l-1 -319l178 161l-1 257q130 127 175 280q15 52 15 108q0 108 -58 229q-88 183 -223 268zM129 -38l1 -218l174 138v242z" />
<glyph unicode="@" horiz-adv-x="1060" d="M38 533q-8 -52 -8 -103q0 -90 27 -179q43 -141 355 -403l263 313l-25 18q-73 -104 -155 -104q-68 0 -143 70q-166 155 -192 361q-6 51 -6 97q0 140 58 235q76 126 171 183q54 33 118 33q47 0 99 -18q122 -43 216 -162.5t96 -232.5q1 -5 1 -9q0 -108 -55 -187 q-40 -59 -81 -59q-17 0 -35 12q-49 29 -49 284q0 56 2 122l56 118h-281q-183 -168 -208 -332q-2 -17 -2 -35q0 -150 186 -330l142 142q30 -127 130 -141q252 246 313 411q19 54 19 108q0 113 -84 230q-126 173 -381 266q-171 -115 -264.5 -200t-175.5 -226t-107 -282z M398 537q-39 84 -39 141q0 73 63 102h202l-53 -82l-1 -298q-19 -12 -37 -12q-66 0 -135 149z" />
<glyph unicode="A" horiz-adv-x="836" d="M-80 466l21 -13q57 68 120 72l119 1l-40 -315l-187 -213l308 1l191 234l-22 14q-37 -50 -161 -50q-39 0 -87 5q81 56 118 170l21 162l161 2q53 51 143 227l-10 14q-47 -65 -102 -65h-9l-170 1l40 322l93 98q199 -317 199 -600q0 -38 -4 -76q-30 -316 -328 -671 q114 -12 234 -120q93 -84 180 -84q25 0 50 7l149 198l-44 28q-15 -55 -57 -55q-45 0 -122 64q-117 99 -195 98q-20 0 -37 -6q208 216 293 476q37 113 37 233q0 155 -62 320q-111 292 -173 405l-216 -261q3 30 3 58q0 121 -60 200l-190 -222l12 -28q34 31 55 31q30 0 34 -63 l-32 -352l-108 -13z" />
<glyph unicode="B" horiz-adv-x="819" d="M-23 40q136 0 136 177v5v538q0 177 121 229q-158 -38 -165 -224l1 -540v-13q0 -157 -93 -172zM58 1041l26 -21l86 78q30 -3 32 -136l-2 -748l-140 -214h394l158 176q114 112 170 239q28 64 28 125q0 60 -28 115q-55 112 -214 163q145 130 151 245v9q0 112 -147 256 l-192 -206q1 116 -68 206zM256 209q108 46 125 214l1 212q30 36 68 36q49 0 110 -59q111 -105 115 -190q1 -11 1 -22q0 -69 -23 -109q-26 -45 -101 -82h-296zM384 719v343l79 84q81 -27 115 -125q10 -29 10 -58q0 -69 -56 -141q-99 -15 -148 -103z" />
<glyph unicode="C" horiz-adv-x="588" d="M21 637l-2 -34q0 -127 55 -251q62 -141 312 -356l224 348l-28 21l-81 -124q-124 15 -240 207q-106 177 -107 362q0 18 2 34q10 202 72 262h200q-45 -70 -45 -134q0 -78 68 -147l7 12q-48 53 -48 113q0 72 70 152l141 198l-300 -1q-86 -84 -156.5 -212.5t-102.5 -217 t-41 -232.5z" />
<glyph unicode="D" horiz-adv-x="762" d="M-2 1061l33 -5l35 50h186q-73 -60 -104 -182v-731l-141 -196h384q364 355 363 636q0 24 -2 46q-33 297 -208 567q66 75 152 75q45 0 96 -21l-23 12q-51 26 -102 27q-150 0 -294 -234q161 -210 248 -482q23 -73 23 -138q0 -179 -174 -304l-274 2q78 61 132 185l5 737 l148 184l-325 -3zM267 216q136 1 136 178v5v328q0 177 121 229q-158 -38 -165 -224l1 -330v-13q0 -157 -93 -173z" />
<glyph unicode="E" horiz-adv-x="629" d="M20 637q-1 -17 -1 -34q0 -127 55 -251q62 -141 312 -356l224 348l-28 21l-81 -124q-102 9 -210.5 148.5t-143.5 302.5h193q-14 -30 -14 -60q0 -69 72 -141l13 7q-57 63 -57 120q0 46 38 87l124 175l-288 -1l-93 -125q31 292 93 352l270 -1l116 194h-293 q-86 -84 -156.5 -212.5t-103 -217t-41.5 -232.5z" />
<glyph unicode="F" horiz-adv-x="688" d="M-42 90q136 1 136 178v5v538q0 177 121 229q-159 -38 -165 -224l1 -540v-13q0 -157 -93 -173zM3 -1l283 1l122 203l-228 -2q100 48 128 141v355l117 -1q-19 -46 -19 -81q0 -82 107 -104h18q-99 24 -99 97q0 37 25 87l126 162l-206 -1l-70 -100l1 244l130 164 q2 -126 186 -198l138 143q-189 81 -211 259l-234 -290v17q0 149 -84 225l-227 -283l30 -24l69 83q43 -2 43 -98v-13v-768z" />
<glyph unicode="G" horiz-adv-x="680" d="M10 637q-1 -17 -1 -35q0 -126 60 -251q68 -141 252 -368l167 193v-31q0 -159 -20 -213q-21 -58 -177 -242q15 2 31 2q98 0 236 -64q131 -59 219 -59q20 0 38 3l110 168l-15 9q-22 -22 -64 -22q-60 0 -164 47q-148 66 -209 66q-10 0 -18 -2q188 138 188 257v7l1 582 q6 110 89 140l-11 21l-301 -1l-140 -235h38l34 58h189q-45 -40 -64 -118v-313q-21 -39 -52 -39q-63 0 -165 169q-127 208 -127 392q0 37 6 73q30 215 99 275h296l159 254l-26 10l-46 -70l-281 -1q-95 -84 -172.5 -212.5t-113 -216.5t-45.5 -233zM187 412q136 0 136 177v5 v268q0 177 121 229q-158 -38 -165 -224l1 -270v-13q0 -157 -93 -172z" />
<glyph unicode="H" horiz-adv-x="873" d="M-58 529l9 -24q66 93 189 93h18v-382l-145 -216l283 1l122 201l-228 -2q100 48 128 141v265h157q-19 -46 -19 -81q0 -83 107 -105h18q-99 24 -99 97q0 37 25 87l70 82l2 80l-262 -1v312v25q0 165 -74 217l-227 -283l30 -24l69 83q43 -2 43 -98v-13v-224zM453 0l283 1 l122 201l-228 -2q100 48 128 141l-1 736v25q0 165 -74 217l-227 -283l30 -24l69 83q43 -2 43 -98v-13v-768zM702 218q136 1 136 178v5v538q0 177 121 229q-159 -38 -165 -224l1 -540v-13q0 -157 -93 -173z" />
<glyph unicode="I" horiz-adv-x="443" d="M-69 148q136 0 136 177v5v538q0 177 121 229q-158 -38 -165 -224l1 -540v-13q0 -157 -93 -172zM-32 1061l33 -5l35 50h186q-73 -60 -104 -182v-731l-141 -196h334l134 185l-279 1q78 61 132 185l4 737h91l165 218l-17 20l-50 -54l-365 -3z" />
<glyph unicode="J" horiz-adv-x="800" d="M-36 487q5 -82 56 -171.5t128 -179.5q63 -72 63 -117q0 -11 -4 -20l17 -7l167 169q57 41 114 125t63 222l4 597h181l165 218l-17 20l-50 -54l-675 -3l-158 -225l33 -5l35 50h406q-73 -60 -104 -162v-538q6 -63 6 -109q0 -70 -13 -104q-161 220 -194 268t-41 121 q-1 11 -1 21q0 56 37 86l-20 24zM504 150q136 1 136 178v5v538q0 177 121 229q-159 -38 -165 -224l1 -540v-13q0 -157 -93 -173z" />
<glyph unicode="K" horiz-adv-x="868" d="M-29 78q136 1 136 178v5v538q0 177 121 229q-158 -38 -165 -224l1 -540v-13q0 -157 -93 -173zM34 -3l312 3l130 178h-261q85 71 130 202v938l110 114l-31 23l-380 -380l30 -28l91 86l-2 -950zM366 646q4 1 8 1q110 0 225 -504q119 -522 255 -577l185 198l-18 24l-71 -63 q-82 19 -188.5 522t-241.5 569l348 483l-264 -1l-205 -262l35 -16q49 101 220 101q16 0 32 -1l-320 -422v-52z" />
<glyph unicode="L" horiz-adv-x="756" d="M-12 1061l33 -5l35 50h186q-73 -60 -104 -182v-731l-141 -196h584l190 306q-187 85 -187 253q0 11 1 22l68 70l-32 15l-174 -187q16 -225 193 -292l-454 -1q78 61 132 185l4 737h71l148 184l-395 -3zM268 210q136 1 136 178v5v538q0 177 121 229q-159 -38 -165 -224 l1 -540v-13q0 -157 -93 -173z" />
<glyph unicode="M" horiz-adv-x="1099" d="M-44 99q136 0 136 177v5v538q0 177 121 229q-159 -38 -165 -224l1 -540v-13q0 -157 -93 -172zM-44 963l27 -31l95 109h6q45 0 45 -122q0 -33 -3 -74l1 -643l-116 -203l275 1l104 200l-220 -1q132 111 131 209v621q1 29 1 56q0 199 -60 236zM313 922l115 139q51 0 51 -138 q0 -35 -3 -78l1 -653l-106 -193l280 1l111 200h-239q117 74 128 207v307v202l138 165q4 1 7 1q49 0 49 -173q0 -33 -2 -73v-366q1 -27 1 -54q0 -344 -226 -703q41 11 79 11q88 0 159 -57q102 -81 184 -98l192 255l-34 24l-79 -96q-5 -1 -10 -1q-57 0 -142 81q-74 71 -170 71 q-23 0 -47 -4q276 206 275 513q0 23 -1 46l2 460v10q0 270 -104 375l-271 -314q1 34 1 64q0 231 -60 268l-276 -328z" />
<glyph unicode="N" horiz-adv-x="843" d="M-8 69q136 0 136 177v5v538q0 177 121 229q-159 -38 -165 -224l1 -540v-13q0 -157 -93 -172zM-4 893l37 -41l85 129q3 1 7 1q43 0 42 -113v-24v-443v-222l-126 -181l263 -1l113 197l-209 2q93 51 133 217v542l82 109q103 -21 162 -159t65 -304v-10q0 -169 -188 -595 l258 2l152 255l-20 22q-36 -90 -154 -90q-45 0 -101 13q99 193 173 387q35 91 34 188q0 109 -44 225q-83 219 -228 304l-191 -274q1 29 1 56q0 199 -60 236z" />
<glyph unicode="O" horiz-adv-x="627" d="M60 392q153 -368 248 -414q214 426 274 584q39 103 39 221q0 63 -11 131q-32 194 -283 412q-309 -415 -309 -723q1 -113 42 -211zM243 1108q230 -283 230 -562q0 -84 -21 -167l-85 -168q-209 339 -209 598q0 166 85 299z" />
<glyph unicode="P" horiz-adv-x="731" d="M-46 70q136 1 136 178v5v538q0 177 121 229q-159 -38 -165 -224l1 -540v-13q0 -157 -93 -173zM-18 0h326l168 187l-292 -5q92 35 135 161v156q39 -53 99 -77q37 57 147 183q87 95 134 205q20 47 19 96q0 68 -36 141q-64 126 -190 266l-174 -212q1 15 1 29q0 125 -71 185 l-228 -268l19 -33l72 76q35 -9 35 -152v-23l-1 -682q-14 -146 -163 -233zM320 1019l68 84q183 -183 183 -350q0 -33 -7 -66q-34 -69 -83 -69q-12 0 -25 4q-66 21 -88 129l-47 -84z" />
<glyph unicode="Q" horiz-adv-x="664" d="M38 484q104 -312 267 -465l-165 -310l37 -32l39 76q80 -6 277 -107q137 -70 215 -70q34 0 56 13l235 354l-38 21l-87 -122q-39 -11 -83 -11q-100 0 -225 57q-183 82 -230 94q218 461 278 626q39 105 39 217q0 62 -11 125q-34 179 -289 370q-336 -419 -336 -703 q0 -70 21 -133zM245 1088q241 -139 241 -487q0 -85 -15 -184l-60 -178q-238 279 -238 552q0 149 72 297z" />
<glyph unicode="R" horiz-adv-x="915" d="M-36 122q136 1 136 178v5v538q0 177 121 229q-159 -38 -165 -224l1 -540v-13q0 -157 -93 -173zM7 1041l26 -21l86 78q30 -3 33 -136l-3 -748l-140 -214h274l148 209h-226q108 46 125 214l1 92q43 55 83 55q35 0 69 -42q72 -90 134 -396q34 -111 121 -142l212 183l-19 29 l-68 -58q-78 5 -116 221t-163 315l-67 -2q172 161 172 313q0 11 -1 23q-14 164 -167 314l-192 -206q1 116 -68 206zM333 579v483l79 84q80 -28 110 -220q5 -32 5 -60q0 -148 -125 -228z" />
<glyph unicode="S" horiz-adv-x="629" d="M38 414q-8 -26 -8 -52q0 -104 125 -191q131 -92 130 -149q0 -10 -4 -20l23 -13q237 369 275 471q29 78 30 134q1 17 -3 31q-12 63 -94 142q52 57 52 122q0 73 -68 155q37 -62 37 -116q0 -68 -61 -122q-41 40 -141 111.5t-99 158.5h240l120 223l-264 -1 q-67 -118 -145 -227q-77 -109 -93 -170q-5 -18 -5 -35q1 -43 27 -85q38 -58 225 -201q-25 -56 -25 -105q0 -72 54 -130q-18 48 -18 91q0 57 32 106q78 -62 78 -155q0 -33 -10 -69l-47 -96q-27 102 -151 184q-85 56 -86 122q0 30 18 63l-23 18z" />
<glyph unicode="T" horiz-adv-x="776" d="M-2 1061l33 -5l35 50h356q-73 -60 -104 -182v-731l-141 -196h334l134 185l-279 1q78 61 132 185l2 188q41 -34 82 -34l116 68q-37 -26 -75 -26l-121 69v472h181l165 218l-17 20l-50 -54l-625 -3zM142 150q136 1 136 178v5v538q0 177 121 229q-159 -38 -165 -224l1 -540 v-13q0 -157 -93 -173z" />
<glyph unicode="U" horiz-adv-x="872" d="M-42 1069l12 -14q26 32 216 32q44 0 97 -2q-134 -169 -204 -365q-30 -83 -30 -168q0 -118 56 -242q96 -213 275 -309l191 274q1 -170 119 -272l218 393l-29 39l-85 -129q-49 6 -49 125q0 13 1 28l-1 443v10q0 236 -144 400l-183 -264l19 -37l54 74q80 -103 80 -319v-176 v-242l-82 -109q-11 -2 -21 -2q-85 0 -167 141q-93 159 -97 335q0 3 -1 6q0 177 232 539l-332 1z" />
<glyph unicode="V" horiz-adv-x="805" d="M4 967l20 -28l72 88q58 0 58 -179v-12l-1 -529q9 -230 146 -309l144 269l167 206q-29 120 -29 220q0 176 89 290q128 164 128 304q0 13 -2 25q-12 150 -166 204l-196 -244l20 -36l54 68q59 -2 91 -135q8 -33 8 -68q0 -103 -72 -217q-96 -152 -100 -283v-26 q0 -114 28 -188l-83 -115q-54 43 -54 211q0 32 2 68v428q-6 238 -82 311zM284 652q136 0 136 177v5v538q0 177 121 229q-159 -38 -165 -224l1 -540v-13q0 -157 -93 -172z" />
<glyph unicode="W" horiz-adv-x="1187" d="M-2 968l20 -28l72 88q58 0 58 -179v-12l-1 -529q9 -230 146 -309l210 355v97l-118 -199q-65 62 -65 240q0 28 2 60v428q-6 238 -82 311zM366 964l20 -28l72 88q58 0 58 -179v-12l-1 -529q9 -230 146 -309q157 296 331 475q-29 120 -29 220q0 176 89 290q128 164 128 304 q0 13 -2 25q-12 150 -166 204l-196 -244l20 -36l54 68q59 -2 91 -135q8 -33 8 -68q0 -103 -72 -217q-96 -152 -100 -283v-26q0 -114 28 -188l-103 -145q-54 68 -54 241q0 32 2 68v428q-6 238 -82 311zM654 652q136 0 136 177v5v538q0 177 121 229q-159 -38 -165 -224l1 -540 v-13q0 -157 -93 -172z" />
<glyph unicode="X" horiz-adv-x="851" d="M14 1057l33 -20q28 53 56 53q27 0 53 -51l88 -191l-93 -144q-39 -58 -82 -197q-27 -86 -27 -174q0 -53 10 -106q27 -141 150 -247l220 403l-20 47l-121 -218q-92 93 -109 245q-2 20 -2 40q0 137 96 305l303 -705q37 -96 91 -115l206 224l-16 33q-42 -55 -76 -55 q-33 0 -60 51l-291 698l127 168q66 -63 82 -175q2 -16 2 -32q0 -94 -81 -180l12 -45q148 203 161 285q8 49 7 100q0 35 -3 71q-9 88 -73 198l-253 -345l-92 196q-39 96 -103 120z" />
<glyph unicode="Y" horiz-adv-x="766" d="M-30 1071l26 -21q34 53 132 53q30 0 66 -5q-135 -140 -135 -329q0 -184 108 -279q109 -95 185 -126q107 111 168 226q3 -39 3 -77q0 -110 -28 -209l-143 -213l24 -15q31 33 58 33q41 0 74 -76q33 -72 33 -140q0 -49 -17 -95q-4 -1 -9 -1q-40 0 -101 92q-69 103 -129 126 q-20 8 -38 8q-38 0 -69 -33q-48 -48 -150 -179l16 -16q30 21 62 21q59 0 122 -73q96 -114 172 -145l121 133q172 239 191 321q5 19 5 39q0 69 -53 155q-53 54 -116 63l151 325l1 461q3 168 108 199l-288 -2l-168 -217l32 -12q21 45 132 45q24 0 52 -2q-41 -81 -48 -155v-302 q-30 -45 -75 -89q-240 174 -240 355q0 21 3 42q31 203 168 340l-249 -2z" />
<glyph unicode="Z" horiz-adv-x="701" d="M17 4l20 -16q53 48 137 48q57 0 128 -21q77 -24 132 -25q70 0 106 39l168 241l-13 20q-57 -73 -114 -73q-3 1 -5 1q-60 3 -159 44q-57 24 -115 23q-42 0 -84 -12l144 301l94 -2q-36 -45 -36 -89q0 -63 74 -125l18 3q-64 46 -65 102q0 49 49 105l166 203v37 q-61 -50 -207 -50h-17q199 516 282 543l-486 -3l-106 -258l24 -11q10 55 70 55q9 0 18 -1l266 -2l-128 -318l-152 2l-124 -201l8 -25q35 37 181 37h8z" />
<glyph unicode="[" horiz-adv-x="458" d="M-38 -420l370 1l166 207h-351l1 1630l169 1l151 199l-302 -1l-130 -190v-1750z" />
<glyph unicode="\" horiz-adv-x="419" d="M-40 1326l98 103l420 -1671l-104 -97z" />
<glyph unicode="]" horiz-adv-x="493" d="M-38 1410h351l-1 -1630l-169 -1l-151 -199l302 1l130 190v1750l74 97l-370 -1z" />
<glyph unicode="_" horiz-adv-x="976" d="M2 -406l21 -8q62 43 178 43h10h521q149 12 245 146l-12 10q-102 -54 -224 -54h-9h-438q-208 -8 -292 -137z" />
<glyph unicode="`" horiz-adv-x="395" d="M-6 1218q172 -187 260 -187q5 0 10 1l137 154q-14 -2 -29 -2q-115 0 -261 155z" />
<glyph unicode="a" horiz-adv-x="629" d="M17 386q4 -67 19.5 -124.5t62.5 -130.5t115 -135l141 171v50l-53 -69q-82 74 -122 216q-27 94 -27 173q0 41 7 78q21 108 82 116h280q9 124 87 155l-10 14l-265 1l-212 -227q-72 -80 -91 -151q-15 -57 -15 -111q0 -13 1 -26zM361 194q3 -152 105 -198l189 238l-22 19 q-46 -73 -73 -73t-35 73l-2 474l-162 -163v-370z" />
<glyph unicode="b" horiz-adv-x="604" d="M-86 1075l30 -28l87 95l2 -739v-10q0 -283 221 -393q172 189 254 302t94 221q2 16 2 33q0 92 -58 182l-130 199l-201 -216v627l110 134l-31 23zM215 430v86q-1 14 -1 27q0 115 79 194q134 -182 150 -326q2 -18 3 -36q0 -121 -100 -205q-127 61 -131 260zM218 894 q136 0 136 177v5v538q0 177 121 229q-159 -38 -165 -224l1 -540v-13q0 -157 -93 -172z" />
<glyph unicode="c" horiz-adv-x="566" d="M13 377q11 -68 44.5 -133t81 -133.5t138.5 -134.5l251 316l-25 25l-126 -157q-86 58 -168 199q-68 117 -69 214q0 20 3 38q17 111 102 119q55 -24 64 -80q7 -19 7 -39q0 -51 -52 -101l23 -15l200 219q97 81 98 149q0 5 -1 9q-7 72 -117 131l-10 -4q104 -68 104 -126 q0 -12 -5 -25q-27 -68 -60 -82q3 6 3 13q0 47 -118 145q-207 -171 -273 -237t-86 -154q-13 -57 -13 -105q0 -27 4 -51z" />
<glyph unicode="d" horiz-adv-x="607" d="M18 346q8 -116 86 -208.5t194 -152.5l121 191l115 170q50 84 50 199q0 120 -154 365q-149 237 -148 343v7q4 105 43 144l38 54l-17 25q-186 -227 -202 -333q-2 -13 -1 -27q0 -103 101 -278q-150 -195 -192 -289q-36 -80 -35 -174q0 -18 1 -36zM163 586q22 112 104 219 q107 -167 148 -274q29 -76 30 -146q0 -29 -5 -57q-17 -96 -64 -127q-122 35 -179 154q-41 86 -40 168q0 32 6 63zM272 1140q136 0 136 177v5v258q0 177 121 229q-159 -38 -165 -224l1 -260v-13q0 -157 -93 -172z" />
<glyph unicode="e" horiz-adv-x="504" d="M6 383q4 -69 34.5 -133t78 -132.5t138.5 -134.5l264 329l-28 21l-138 -171q-84 64 -157 204q-59 114 -58 208q0 22 3 43q17 111 102 119q69 -46 69 -119q0 -15 -3 -31l-139 -147l21 -39l14 20q42 -18 88 -18q131 0 293 146h-18q-131 -106 -231 -106q-53 0 -97 29l245 248 q2 13 2 26q0 93 -108 184q-207 -171 -273 -236.5t-86 -153.5q-16 -72 -16 -131q-1 -12 0 -25z" />
<glyph unicode="f" horiz-adv-x="384" d="M-265 -270h11q143 0 211 -146q266 244 306 434l1 720l52 1l128 162l-193 1l1 326l122 1q-8 -39 -8 -71q0 -100 74 -125l16 5q-71 20 -71 95q0 40 21 97l140 176l-190 -4l-267 -299l-1 -247l-161 -180l24 -14q40 52 129 52h16l1 -668q1 -32 1 -60q0 -163 -34 -215 q-56 136 -174 136q-10 0 -21 -1z" />
<glyph unicode="g" horiz-adv-x="654" d="M-18 -258q179 -156 334 -165q250 145 294 237q26 58 26 95q0 23 -10 38q-27 40 -142 99q-27 18 -27 50q0 46 54 121l-38 19q-158 -237 -158 -291t197 -165q-42 -48 -97 -48h-5q-59 3 -183 64q-67 33 -67 85q0 44 50 102l-26 14zM51 282q139 -257 227 -290 q195 298 250 409q35 72 35 149q0 41 -10 84q-30 123 -84 179q144 145 144 256q0 79 -71 141l-112 -185q38 -62 38 -115q0 -43 -27 -80l-146 107q-282 -292 -282 -508q0 -79 38 -147zM167 740q244 -123 244 -421q0 -22 -1 -46l-50 -74q-205 215 -205 433q0 54 12 108z" />
<glyph unicode="h" horiz-adv-x="667" d="M-86 1065l30 -28l87 96l2 -850v-9q0 -167 151 -284l192 219l-20 26l-67 -73q-74 64 -74 218v126v143l87 94q108 -50 108 -186v-15l-1 -264q-4 -29 -4 -57q0 -146 116 -236l207 230l-20 25l-75 -79q-45 10 -45 91q0 12 1 26q7 169 7 280q0 115 -8 169q-15 106 -172 200 l-201 -216v647l110 134l-31 23zM218 894q136 0 136 177v5v538q0 177 121 229q-159 -38 -165 -224l1 -540v-13q0 -157 -93 -172z" />
<glyph unicode="i" horiz-adv-x="430" d="M-16 585l30 -28l107 126l-18 -360q-1 -234 151 -333l192 219l-20 26l-57 -63q-84 91 -84 238v10l20 478l90 114l-31 23zM22 902l34 -27l351 412l-31 27l-102 -122q-19 92 -90 152l-154 -162q91 -87 92 -168z" />
<glyph unicode="j" horiz-adv-x="362" d="M-6 585l30 -28l87 106v-610q-8 -297 -109 -351l17 -27q278 125 278 356v19l-2 818l110 134l-31 23zM2 902l34 -27l351 412l-31 27l-102 -122q-19 92 -90 152l-154 -162q91 -87 92 -168z" />
<glyph unicode="k" horiz-adv-x="792" d="M-34 1086l30 -28l87 106l2 -870v-9q0 -167 151 -284l192 229l-24 23l-63 -70q-74 54 -74 208v1008l90 104l-31 23zM238 894q136 0 136 177v5v538q0 177 121 229q-159 -38 -165 -224l1 -540v-13q0 -157 -93 -172zM288 488l1 -39q78 -7 143 -198t188 -259l202 252l-28 21 l-64 -79q-77 16 -134.5 196t-161.5 206l79 86q50 73 50 144q0 56 -31 110l-134 -164q30 -36 30 -82q0 -20 -6 -44q-20 -74 -134 -150z" />
<glyph unicode="l" horiz-adv-x="386" d="M-54 1086l30 -28l87 106l2 -870v-9q0 -167 151 -284l192 229l-24 23l-63 -70q-74 54 -84 208v998l100 114l-31 23zM218 894q136 0 136 177v5v538q0 177 121 229q-159 -38 -165 -224l1 -540v-13q0 -157 -93 -172z" />
<glyph unicode="m" horiz-adv-x="1125" d="M-60 645l28 -28l88 92q45 -4 45 -81q0 -13 -1 -28l-8 -317v-18q0 -161 135 -275l189 189l-19 26l-55 -53q-73 70 -73 210v18l3 126l5 153l85 88q96 -5 96 -181q0 -14 -1 -28l-6 -256q-1 -22 -1 -43q0 -175 98 -254l213 200l-18 25l-74 -63q-39 14 -39 107q0 16 1 34 q14 191 15 313q0 90 -9 142q-18 123 -161 184l-197 -206q1 151 -86 201zM650 711l6 -55l78 91q96 -5 96 -181q0 -14 -1 -28l-7 -256q-1 -22 -1 -43q0 -175 98 -254l213 200l-18 25l-73 -63q-39 14 -39 104q0 17 1 37q15 205 15 323q0 74 -6 113q48 77 139 77q57 0 132 -30 q-83 54 -154 54q-68 0 -126 -50q-13 91 -156 152z" />
<glyph unicode="n" horiz-adv-x="772" d="M-20 645l28 -28l88 92q53 -5 44 -109l-8 -317q-8 -173 135 -293l189 189l-19 26l-55 -53q-78 74 -73 228l3 126l6 173l84 78q103 -15 95 -219l-6 -256q-13 -209 97 -297l213 200l-18 25l-74 -63q-46 17 -38 141q25 333 6.5 455.5t-161.5 183.5l-197 -196q1 141 -86 191z " />
<glyph unicode="o" horiz-adv-x="564" d="M46 282q140 -258 227 -291q195 298 249 409q36 72 36 156q0 44 -10 91q-29 136 -258 289q-281 -291 -281 -507q0 -78 37 -147zM162 428q-29 78 -28 149q0 92 47 173q67 -4 93 -44q-61 -57 -61 -140q0 -111 108 -268q-71 162 -71 251q0 94 81 103q96 -112 96 -255 q0 -52 -13 -109l-68 -108q-118 71 -184 248z" />
<glyph unicode="p" horiz-adv-x="636" d="M-107 -332q136 0 136 177v5v538q0 177 121 229q-158 -38 -165 -224l1 -540v-13q0 -157 -93 -172zM-78 -389h326l168 187l-292 -5q61 32 116 163l4 134q36 -62 91 -94q51 60 124 179t130 238q32 66 32 132q0 54 -21 108q-46 120 -104 175q-29 27 -29 62q0 32 27 71l-2 23 l-234 -272q1 15 1 29q0 125 -71 185l-228 -268l19 -33l72 76q35 -9 35 -152v-23l-1 -682q-14 -146 -163 -233zM260 630l48 64q172 -172 172 -365q0 -32 -5 -65q-38 -37 -72 -37q-14 0 -27 6q-45 20 -68 129l-47 -84z" />
<glyph unicode="q" horiz-adv-x="580" d="M62 274q149 -253 193 -268l-165 -289l37 -24l39 57q80 -4 186 -81q75 -53 134 -53q25 0 48 10l155 276l-38 15l-37 -76q-24 -9 -49 -9q-56 0 -120 43q-92 63 -179 72q218 349 268 461q31 68 31 144q0 50 -13 104q-34 135 -269 280q-263 -292 -263 -505q0 -85 42 -157z M163 736q258 -120 258 -438v-22l-46 -75q-221 215 -221 442q0 46 9 93z" />
<glyph unicode="r" horiz-adv-x="583" d="M-16 635l28 -28l83 96l2 -420q-4 -173 143 -293l186 231l-23 24l-64 -81q-69 62 -69 216v126v143l60 80q40 -108 129 -139l-52 -65l25 -23l184 227q147 144 60 329q44 -214 -96 -310q-89 12 -130 179l-180 -216q0 197 -42 211z" />
<glyph unicode="s" horiz-adv-x="571" d="M19 248q195 -246 274 -246q21 0 33 17l36 43q153 186 183 236q23 37 24 71q0 12 -4 23q-10 44 -71.5 110t-165 125t-102.5 92h224l112 180q31 36 31 66q0 58 -116 95l-5 2q102 -42 102 -92q0 -33 -45 -70h-213q-63 -81 -135.5 -157t-86.5 -118q-4 -12 -5 -25 q0 -29 25 -58q35 -41 187 -154q131 -97 131 -151q0 -9 -4 -17l-15 -27q-13 -18 -34 -18q-70 0 -232 195l25 36l-14 16z" />
<glyph unicode="t" horiz-adv-x="571" d="M-13 656l26 -25q57 80 169 89l1 -437q-4 -173 141 -293l192 229l-20 26l-67 -73q-74 54 -74 208v347h85q-42 -170 84 -292l12 11q-105 122 -47 282l109 168h-243v156l110 140l-31 23z" />
<glyph unicode="u" horiz-adv-x="701" d="M-46 567l18 -25l111 113v-457q11 -145 167 -213l185 216v-8q0 -143 136 -203l179 257l-28 28l-61 -86q-59 13 -59 147v515l80 87l-22 21l-354 -386l22 -23l106 118l1 -405l-80 -98q-99 5 -98 209v470l78 94l-20 20zM212 432q136 0 136 177v5v538q0 177 121 229 q-159 -38 -165 -224l1 -540v-13q0 -157 -93 -172z" />
<glyph unicode="v" horiz-adv-x="661" d="M-56 585l30 -28l90 116l-1 -350q-1 -234 151 -333l192 219q150 144 179 291v388l110 124l-31 23l-380 -450l30 -28l97 126l6 -195q1 -23 1 -45q0 -137 -43 -222l-46 -49q-84 91 -84 238v10v468l110 124l-31 23z" />
<glyph unicode="w" horiz-adv-x="1034" d="M-36 865l30 -28l107 126h9q157 0 157 -48q0 -52 -184 -161v-431q-1 -234 151 -333l182 199l-10 46l-57 -63q-84 91 -84 238v10l4 379q183 152 183 248q0 91 -167 131l90 114l-31 23zM294 585l30 -28l90 116l-1 -350q-1 -234 151 -333l192 219q150 144 179 291v388 l110 124l-31 23l-380 -450l30 -28l97 126l6 -195q1 -23 1 -45q0 -137 -43 -222l-46 -49q-84 91 -84 238v10v468l110 124l-31 23z" />
<glyph unicode="x" horiz-adv-x="667" d="M25 294q-7 -24 -6 -48q0 -117 154 -255l161 234l-22 37l-54 -77q-112 121 -112 221q0 71 56 131q205 -414 235 -459q29 -56 91 -78l154 237l-15 26q-30 -57 -59 -57q-22 0 -44 32l-68 155q61 131 133 241q22 33 22 72q0 91 -119 216l-199 -172l20 -30l75 64 q90 -114 90 -219q0 -72 -42 -140l-222 446q-14 37 -30 37q-12 0 -24 -21l-167 -176l20 -34q24 32 45 32q20 0 38 -29l49 -101q-120 -149 -160 -285z" />
<glyph unicode="y" horiz-adv-x="711" d="M-27 -253q128 -1 257 -157l136 122q226 163 256 356v813l80 97l-22 21l-354 -416l22 -23l106 118l1 -405l-80 -98q-99 5 -98 209v490l78 104l-20 20l-361 -421l18 -25l111 113v-457q11 -145 167 -213l185 216q1 -24 1 -46q0 -260 -115 -425q-69 132 -247 175zM234 478 q136 0 136 177v5v538q0 177 121 229q-159 -38 -165 -224l1 -540v-13q0 -157 -93 -172zM403 1569q62 -59 76 -128l110 101q-33 96 -81 137zM498 1415q62 -59 76 -128l110 101q-33 96 -81 137zM568 1616q62 -59 76 -128l110 101q-33 96 -81 137z" />
<glyph unicode="z" horiz-adv-x="537" d="M-4 12l22 -12q67 50 129 50q32 0 62 -14q89 -39 127 -47q-3 -26 -3 -49q0 -149 134 -194l14 14q-109 34 -109 142q0 42 17 96l146 264l-26 10q-26 -58 -91 -58q-33 0 -76 14q-74 26 -122 27q-34 0 -54 -14l84 133h144l140 201q-62 -45 -151 -45q-30 0 -63 5l192 359 l-13 10h-346l-147 -243l20 -19l48 71l284 -1l-84 -177l-125 -1l-133 -198q57 42 148 42q18 0 38 -2z" />
<glyph unicode="{" horiz-adv-x="455" d="M23 559q83 -136 82 -251q9 -639 107 -708l133 169l-10 24q-14 -19 -26 -19q-61 0 -78 467v152q-15 133 -82 176q72 58 72 221v26v294q7 315 79 426l-11 26q-184 -229 -184 -487v-14v-242q1 -140 -82 -260z" />
<glyph unicode="}" horiz-adv-x="348" d="M3 1393l10 -24q14 19 26 19q61 0 78 -467v-152q15 -133 82 -176q-72 -58 -72 -221v-26v-294q-7 -315 -79 -426l11 -26q184 229 184 487v14v242q-1 140 82 260q-83 136 -82 251q-9 639 -107 708z" />
<glyph unicode="&#xa2;" horiz-adv-x="750" d="M6 376q5 -69 35 -133t77.5 -132.5t138.5 -134.5l251 316l-25 25l-126 -157q-86 58 -159 199q-58 114 -58 209q0 22 3 44q17 111 102 118q55 -24 64 -80q7 -19 7 -39q0 -51 -52 -101l23 -15l200 219q14 18 14 41q0 66 -120 169q-207 -171 -273 -237t-86 -154 q-16 -72 -16 -131v-26zM227 1132l1 -1509l62 114v1520z" />
<glyph unicode="&#xa3;" horiz-adv-x="712" d="M3 -1l12 -22q67 24 128 24q126 0 228 -104q134 -139 294 -139q19 0 38 2l118 244l-23 12q-38 -42 -92 -42q-88 0 -220 112q-155 133 -255 133q-36 0 -65 -18q102 48 118 141l27 205h108q-18 -46 -18 -81q0 -83 99 -105h17q-92 24 -92 97q0 37 24 87l116 162l-236 -1 l58 394l120 164q2 -126 135 -198l127 143q-137 81 -158 259l-215 -290v15q0 151 -78 227l-209 -283l27 -24l64 83q40 -2 40 -97v-14l-52 -379l-44 1l-108 -165h140l-39 -325z" />
<glyph unicode="&#xa9;" horiz-adv-x="526" d="M18 944q-3 -23 -3 -47q0 -60 20 -131q30 -99 104 -176l58 46q-122 144 -122 298q0 152 118 313l-13 5q-62 -66 -106 -148t-56 -160zM130 939q-1 -7 -1 -14q0 -49 21 -97q24 -54 121 -137l87 135l-11 8l-31 -48q-49 6 -94 81q-40 68 -40 140v13q4 78 28 101h77 q-17 -27 -17 -52q0 -31 26 -57l3 5q-19 20 -19 43q0 28 27 59l55 77h-116q-34 -33 -61 -82.5t-39.5 -84t-15.5 -90.5zM333 1266q122 -144 122 -298q0 -152 -118 -313l13 -5q62 66 106 148t56 160q3 23 3 47q0 60 -21 130q-29 100 -103 177z" />
<glyph unicode="&#xad;" d="M16 409l16 -13q47 72 134 72h9h396q113 21 186 247l-9 16q-78 -91 -171 -91h-6h-333q-158 -13 -222 -231z" />
<glyph unicode="&#xae;" horiz-adv-x="631" d="M18 944q-3 -23 -3 -47q0 -60 20 -131q30 -99 104 -176l58 46q-122 144 -122 298q0 152 118 313l-13 5q-62 -66 -106 -148t-56 -160zM150 1092l9 -8l32 29q11 -1 12 -50l-1 -276l-51 -79h101l54 77h-83q40 17 46 79v34q16 20 31 20q13 0 26 -16q27 -33 49 -146 q13 -41 45 -52l78 68l-7 10l-25 -21q-29 2 -43 81.5t-60 116.5l-25 -1q63 60 63 116v8q-5 61 -61 116l-71 -76q0 43 -25 76zM266 921v179l29 31q30 -10 41 -81q2 -12 2 -23q0 -54 -46 -84zM433 1266q122 -144 122 -298q0 -152 -118 -313l13 -5q62 66 106 148t56 160 q3 23 3 47q0 60 -21 131q-29 99 -103 176z" />
<glyph unicode="&#x2000;" horiz-adv-x="921" />
<glyph unicode="&#x2001;" horiz-adv-x="1843" />
<glyph unicode="&#x2002;" horiz-adv-x="921" />
<glyph unicode="&#x2003;" horiz-adv-x="1843" />
<glyph unicode="&#x2004;" horiz-adv-x="614" />
<glyph unicode="&#x2005;" horiz-adv-x="460" />
<glyph unicode="&#x2006;" horiz-adv-x="307" />
<glyph unicode="&#x2007;" horiz-adv-x="307" />
<glyph unicode="&#x2008;" horiz-adv-x="230" />
<glyph unicode="&#x2009;" horiz-adv-x="368" />
<glyph unicode="&#x200a;" horiz-adv-x="102" />
<glyph unicode="&#x2010;" d="M16 409l16 -13q47 72 134 72h9h396q113 21 186 247l-9 16q-78 -91 -171 -91h-6h-333q-158 -13 -222 -231z" />
<glyph unicode="&#x2011;" d="M16 409l16 -13q47 72 134 72h9h396q113 21 186 247l-9 16q-78 -91 -171 -91h-6h-333q-158 -13 -222 -231z" />
<glyph unicode="&#x2012;" d="M16 409l16 -13q47 72 134 72h9h396q113 21 186 247l-9 16q-78 -91 -171 -91h-6h-333q-158 -13 -222 -231z" />
<glyph unicode="&#x2013;" horiz-adv-x="1024" d="M204 512v204h616v-204h-616z" />
<glyph unicode="&#x2014;" horiz-adv-x="2048" d="M204 512v204h1640v-204h-1640z" />
<glyph unicode="&#x2018;" horiz-adv-x="299" d="M-1 1201q49 -122 120 -182l154 162q-91 87 -92 158l100 112l-34 27z" />
<glyph unicode="&#x2019;" horiz-adv-x="260" d="M-1 1047l34 -27l248 277q-49 122 -120 182l-154 -162q91 -87 92 -158z" />
<glyph unicode="&#x201c;" horiz-adv-x="514" d="M-1 1201q49 -122 120 -182l154 162q-91 87 -92 158l100 112l-34 27zM219 1201q49 -122 120 -182l154 162q-91 87 -92 158l100 112l-34 27z" />
<glyph unicode="&#x201d;" horiz-adv-x="514" d="M-1 1047l34 -27l248 277q-49 122 -120 182l-154 -162q91 -87 92 -158zM219 1047l34 -27l248 277q-49 122 -120 182l-154 -162q91 -87 92 -158z" />
<glyph unicode="&#x2026;" horiz-adv-x="805" d="M-10 162q91 -87 112 -188l162 148q-49 142 -120 202zM260 162q91 -87 112 -188l162 148q-49 142 -120 202zM530 162q91 -87 112 -188l162 148q-49 142 -120 202z" />
<glyph unicode="&#x202f;" horiz-adv-x="368" />
<glyph unicode="&#x205f;" horiz-adv-x="460" />
<glyph unicode="&#x2122;" horiz-adv-x="725" d="M-13 973l11 -11q25 35 73 39l1 -189q-2 -75 61 -127l83 99l-9 11l-29 -31q-32 23 -32 90v150h45q-11 -20 -11 -39q0 -22 14 -44l5 5q-11 18 -11 35q0 22 16 43l47 73h-105v67l48 61l-14 10zM196 968l12 -12l38 40q23 -2 19 -47l-3 -137v-9q0 -69 58 -118l82 82l-9 11 l-23 -23q-32 30 -32 92v7l1 54l3 67l36 38q41 -3 41 -77v-14l-2 -111q-1 -10 -1 -19q0 -75 43 -109l92 87l-8 10l-32 -27q-17 6 -17 44q0 8 1 17q6 80 6 132q0 41 -4 65q-8 53 -69 79l-86 -89q1 66 -37 87zM503 997l2 -24l34 40q41 -3 41 -77v-14l-3 -111v-17q0 -77 42 -111 l92 87l-8 10l-31 -27q-18 6 -18 45q0 7 1 16q7 88 7 139q0 32 -3 49q21 34 61 34q24 0 56 -13q-36 24 -67 24q-29 0 -54 -22q-5 39 -67 65z" />
<glyph unicode="&#xe000;" horiz-adv-x="920" d="M0 920h920v-920h-920v920z" />
</font>
</defs>
</svg>
